# xmcd
#
# Track frame offsets:
#	150
#	26910
#	49583
#	80853
#	98953
#	117728
#	136715
#	167265
#	197738
#	221970
#	243790
#	265990
#
# Disc length: 3809 seconds
#
# Revision: 1
# Processed by: cddbd v1.5.2PL0 Copyright (c) Steve Scherf et al.
# Submitted via: EZCDAudioConverter 8.0.2.1
#
DISCID=ac0edf0c
DTITLE=Từ Công Phụng, Sĩ Phú, Elvis Phương, Duy Quang - Tứ Quý Tứ Ca
DYEAR=1991
DGENRE=Contemporary Blues
TTITLE0=Duy Quang - Phượng yêu
TTITLE1=Duy Quang - Giết người trong mộng
TTITLE2=Duy Quang - Đừng xa nhau
TTITLE3=Elvis Phương - Hàng hàng lớp lớp
TTITLE4=Elvis Phương - Chiều mưa biên giới
TTITLE5=Elvis Phương - Hải ngoại thương ca
TTITLE6=Từ Công Phụng - Kiếp dã tTràng
TTITLE7=Từ Công Phụng - Giọt lệ cho ngàn sau
TTITLE8=Từ Công Phụng - Ngọn tình sầu
TTITLE9=Sĩ Phú - Một chiều đông
TTITLE10=Sĩ Phú - Gọi buồn
TTITLE11=Sĩ Phú - Nỗi niềm
EXTD=
EXTT0=
EXTT1=
EXTT2=
EXTT3=
EXTT4=
EXTT5=
EXTT6=
EXTT7=
EXTT8=
EXTT9=
EXTT10=
EXTT11=
PLAYORDER=
